<mxfile host="app.diagrams.net" modified="2023-10-16T14:15:56.289Z" agent="Mozilla/5.0 (Windows NT 10.0; Win64; x64; rv:102.0) Gecko/20100101 Firefox/102.0" etag="BHATlxDJAZ7rYunVjP2i" version="22.0.4" type="github">
  <diagram name="Page-1" id="BaAKi60ToRxL9P6tLCyf">
    <mxGraphModel dx="880" dy="419" grid="1" gridSize="10" guides="1" tooltips="1" connect="1" arrows="1" fold="1" page="1" pageScale="1" pageWidth="850" pageHeight="1100" math="0" shadow="0">
      <root>
        <mxCell id="0" />
        <mxCell id="1" parent="0" />
        <mxCell id="PA3iwpse1280_0VgDQRv-12" value="" style="endArrow=classic;html=1;rounded=0;exitX=0.45;exitY=1.05;exitDx=0;exitDy=0;exitPerimeter=0;" edge="1" parent="1">
          <mxGeometry width="50" height="50" relative="1" as="geometry">
            <mxPoint x="434" y="130" as="sourcePoint" />
            <mxPoint x="434" y="187" as="targetPoint" />
            <Array as="points" />
          </mxGeometry>
        </mxCell>
        <mxCell id="PA3iwpse1280_0VgDQRv-46" value="" style="endArrow=classic;html=1;rounded=0;" edge="1" parent="1">
          <mxGeometry width="50" height="50" relative="1" as="geometry">
            <mxPoint x="432" y="400" as="sourcePoint" />
            <mxPoint x="432" y="450" as="targetPoint" />
          </mxGeometry>
        </mxCell>
        <mxCell id="PA3iwpse1280_0VgDQRv-52" value="" style="endArrow=classic;html=1;rounded=0;" edge="1" parent="1">
          <mxGeometry width="50" height="50" relative="1" as="geometry">
            <mxPoint x="480" y="219.5" as="sourcePoint" />
            <mxPoint x="530" y="220" as="targetPoint" />
          </mxGeometry>
        </mxCell>
        <mxCell id="PA3iwpse1280_0VgDQRv-56" value="" style="edgeStyle=none;orthogonalLoop=1;jettySize=auto;html=1;rounded=0;" edge="1" parent="1">
          <mxGeometry width="100" relative="1" as="geometry">
            <mxPoint x="487.5" y="492" as="sourcePoint" />
            <mxPoint x="547.5" y="491.5" as="targetPoint" />
            <Array as="points" />
          </mxGeometry>
        </mxCell>
        <mxCell id="PA3iwpse1280_0VgDQRv-70" value="" style="endArrow=classic;html=1;rounded=0;" edge="1" parent="1">
          <mxGeometry width="50" height="50" relative="1" as="geometry">
            <mxPoint x="432" y="265" as="sourcePoint" />
            <mxPoint x="432" y="315" as="targetPoint" />
          </mxGeometry>
        </mxCell>
        <mxCell id="PA3iwpse1280_0VgDQRv-76" value="START" style="rounded=1;whiteSpace=wrap;html=1;" vertex="1" parent="1">
          <mxGeometry x="372.5" y="70" width="120" height="60" as="geometry" />
        </mxCell>
        <mxCell id="PA3iwpse1280_0VgDQRv-77" value="angka&amp;lt;tebakan" style="strokeWidth=2;html=1;shape=mxgraph.flowchart.decision;whiteSpace=wrap;" vertex="1" parent="1">
          <mxGeometry x="378.75" y="320" width="110" height="80" as="geometry" />
        </mxCell>
        <mxCell id="PA3iwpse1280_0VgDQRv-110" value="" style="edgeStyle=orthogonalEdgeStyle;rounded=0;orthogonalLoop=1;jettySize=auto;html=1;" edge="1" parent="1" source="PA3iwpse1280_0VgDQRv-78">
          <mxGeometry relative="1" as="geometry">
            <mxPoint x="430" y="622" as="targetPoint" />
            <Array as="points">
              <mxPoint x="430" y="570" />
              <mxPoint x="430" y="570" />
            </Array>
          </mxGeometry>
        </mxCell>
        <mxCell id="PA3iwpse1280_0VgDQRv-78" value="angka&amp;gt;tebakan" style="strokeWidth=2;html=1;shape=mxgraph.flowchart.decision;whiteSpace=wrap;" vertex="1" parent="1">
          <mxGeometry x="376.25" y="452" width="112.5" height="80" as="geometry" />
        </mxCell>
        <mxCell id="PA3iwpse1280_0VgDQRv-80" value="" style="endArrow=classic;html=1;rounded=0;" edge="1" parent="1" target="PA3iwpse1280_0VgDQRv-74">
          <mxGeometry width="50" height="50" relative="1" as="geometry">
            <mxPoint x="434.5" y="240" as="sourcePoint" />
            <mxPoint x="434.5" y="290" as="targetPoint" />
          </mxGeometry>
        </mxCell>
        <mxCell id="PA3iwpse1280_0VgDQRv-74" value="angka&amp;lt;tebakan" style="rhombus;whiteSpace=wrap;html=1;" vertex="1" parent="1">
          <mxGeometry x="375" y="175" width="115" height="90" as="geometry" />
        </mxCell>
        <mxCell id="PA3iwpse1280_0VgDQRv-90" value="angka lebih kecil" style="shape=parallelogram;perimeter=parallelogramPerimeter;whiteSpace=wrap;html=1;fixedSize=1;" vertex="1" parent="1">
          <mxGeometry x="520" y="190" width="120" height="60" as="geometry" />
        </mxCell>
        <mxCell id="PA3iwpse1280_0VgDQRv-91" value="angka lebih kecil" style="shape=parallelogram;perimeter=parallelogramPerimeter;whiteSpace=wrap;html=1;fixedSize=1;" vertex="1" parent="1">
          <mxGeometry x="540" y="462" width="120" height="60" as="geometry" />
        </mxCell>
        <mxCell id="PA3iwpse1280_0VgDQRv-93" value="" style="endArrow=classic;html=1;rounded=0;" edge="1" parent="1">
          <mxGeometry width="50" height="50" relative="1" as="geometry">
            <mxPoint x="487.5" y="359.5" as="sourcePoint" />
            <mxPoint x="537.5" y="359.5" as="targetPoint" />
            <Array as="points" />
          </mxGeometry>
        </mxCell>
        <mxCell id="PA3iwpse1280_0VgDQRv-101" value="angka lebih kecil" style="shape=parallelogram;perimeter=parallelogramPerimeter;whiteSpace=wrap;html=1;fixedSize=1;" vertex="1" parent="1">
          <mxGeometry x="530" y="330" width="120" height="60" as="geometry" />
        </mxCell>
        <mxCell id="PA3iwpse1280_0VgDQRv-113" value="" style="edgeStyle=orthogonalEdgeStyle;rounded=0;orthogonalLoop=1;jettySize=auto;html=1;" edge="1" parent="1" source="PA3iwpse1280_0VgDQRv-111">
          <mxGeometry relative="1" as="geometry">
            <mxPoint x="583.75" y="660" as="targetPoint" />
          </mxGeometry>
        </mxCell>
        <mxCell id="PA3iwpse1280_0VgDQRv-111" value="angka=tebakan" style="strokeWidth=2;html=1;shape=mxgraph.flowchart.decision;whiteSpace=wrap;" vertex="1" parent="1">
          <mxGeometry x="375" y="620" width="112.5" height="80" as="geometry" />
        </mxCell>
        <mxCell id="PA3iwpse1280_0VgDQRv-114" value="END" style="ellipse;whiteSpace=wrap;html=1;aspect=fixed;" vertex="1" parent="1">
          <mxGeometry x="590" y="620" width="80" height="80" as="geometry" />
        </mxCell>
      </root>
    </mxGraphModel>
  </diagram>
</mxfile>
